<svg xmlns="http://www.w3.org/2000/svg" xmlns:xlink="http://www.w3.org/1999/xlink" width="560" version="1.1" height="205" viewBox="45 20 570 215"><path transform="matrix(1,0,0,1,50,50)" fill="#f9f7ed" stroke="#cccccc" d="M0,6Q0,0,6,0L94,0Q100,0,100,6L100,25Q100,25,100,25L0,25Q0,25,0,25Z" stroke-width="3"></path><path transform="matrix(1,0,0,1,50,75)" fill="#f9f7ed" stroke="#cccccc" d="M0,0Q0,0,0,0L100,0Q100,0,100,0L100,94Q100,100,94,100L6,100Q0,100,0,94Z" stroke-width="3"></path><text transform="matrix(1,0,0,1,0,0)" style="text-anchor: middle; font: normal normal 200 12px/normal Arial;" x="100" y="125" text-anchor="middle" font="10px &quot;Arial&quot;" stroke="#000000" fill="#000000" font-size="12px" font-weight="200" stroke-width="0"><tspan dy="4.361538461538462">allowSell</tspan></text><text transform="matrix(1,0,0,1,0,0)" style="text-anchor: middle; font: normal normal 700 12px/normal Arial;" x="100" y="63" text-anchor="middle" font="10px &quot;Arial&quot;" stroke="#000000" fill="#000000" font-size="12px" font-weight="700" stroke-width="0"><tspan dy="4.361538461538462">admin</tspan></text><text transform="matrix(1,0,0,1,0,0)" style="text-anchor: middle; font: italic normal normal 12px/normal Arial;" x="100" y="145" text-anchor="middle" font="10px &quot;Arial&quot;" stroke="none" fill="#9E9E9E" font-size="12px" font-weight="normal" font-style="italic" stroke-width="1"><tspan dy="4.361538461538462"></tspan></text><path transform="matrix(1,0,0,1,275,25)" fill="#f9f7ed" stroke="#cccccc" d="M0,6Q0,0,6,0L144,0Q150,0,150,6L150,189Q150,195,144,195L6,195Q0,195,0,189Z" stroke-width="3" x="275" y="25" stroke-dasharray="13,3"></path><text transform="matrix(1,0,0,1,0,0)" style="text-anchor: middle; font: normal normal 200 12px/normal Arial;" x="350" y="30" text-anchor="middle" font="10px &quot;Arial&quot;" stroke="#000000" fill="#000000" font-size="12px" font-weight="200" stroke-width="0"><tspan dy="4.361538461538462"></tspan></text><text transform="matrix(1,0,0,1,0,0)" style="text-anchor: middle; font: normal normal 700 12px/normal Arial;" x="350" y="5" text-anchor="middle" font="10px &quot;Arial&quot;" stroke="#000000" fill="#000000" font-size="12px" font-weight="700" stroke-width="0"><tspan dy="4.361538461538462"></tspan></text><text transform="matrix(1,0,0,1,0,0)" style="text-anchor: middle; font: normal normal bold 18px/normal Arial;" x="410" y="207" text-anchor="middle" font="10px &quot;Arial&quot;" stroke="none" fill="#9E9E9E" font-size="18px" font-weight="bold" stroke-width="1"><tspan dy="6.542307692307693">s</tspan></text><text transform="matrix(1,0,0,1,0,0)" style="text-anchor: middle; font: italic normal normal 12px/normal Arial;" x="350" y="189" text-anchor="middle" font="10px &quot;Arial&quot;" stroke="none" fill="#9E9E9E" font-size="12px" font-weight="normal" font-style="italic" stroke-width="1"><tspan dy="4.361538461538462"></tspan></text><path transform="matrix(1,0,0,1,500,50)" fill="#f9f7ed" stroke="#cccccc" d="M0,6Q0,0,6,0L94,0Q100,0,100,6L100,25Q100,25,100,25L0,25Q0,25,0,25Z" stroke-width="3" opacity="1"></path><path transform="matrix(1,0,0,1,500,75)" fill="#f9f7ed" stroke="#cccccc" d="M0,0Q0,0,0,0L100,0Q100,0,100,0L100,94Q100,100,94,100L6,100Q0,100,0,94Z" stroke-width="3" opacity="1"></path><text transform="matrix(1,0,0,1,0,0)" style="text-anchor: middle; font: normal normal 200 12px/normal Arial;" x="550" y="125" text-anchor="middle" font="10px &quot;Arial&quot;" stroke="#000000" fill="#000000" font-size="12px" font-weight="200" stroke-width="0" opacity="1"><tspan dy="4.361538461538462">deprecationDate</tspan></text><text transform="matrix(1,0,0,1,0,0)" style="text-anchor: middle; font: normal normal 700 12px/normal Arial;" x="550" y="63" text-anchor="middle" font="10px &quot;Arial&quot;" stroke="#000000" fill="#000000" font-size="12px" font-weight="700" stroke-width="0" opacity="1"><tspan dy="4.361538461538462">admin</tspan></text><path transform="matrix(1,0,0,1,580,75)" fill="#ffffff" stroke="#cccccc" d="M0,0L0,20L20,20" font-size="18" font-weight="bold" stroke-width="2" opacity="1"></path><text transform="matrix(1,0,0,1,0,0)" style="text-anchor: middle; font: italic normal normal 12px/normal Arial;" x="550" y="145" text-anchor="middle" font="10px &quot;Arial&quot;" stroke="none" fill="#9E9E9E" font-size="12px" font-weight="normal" font-style="italic" stroke-width="1" opacity="1"><tspan dy="4.361538461538462"></tspan></text><path transform="matrix(1,0,0,1,300,50)" fill="#f9f7ed" stroke="#cccccc" d="M0,6Q0,0,6,0L94,0Q100,0,100,6L100,25Q100,25,100,25L0,25Q0,25,0,25Z" stroke-width="3" stroke-dasharray="13,3" opacity="1"></path><path transform="matrix(1,0,0,1,300,75)" fill="#f9f7ed" stroke="#cccccc" d="M0,0Q0,0,0,0L100,0Q100,0,100,0L100,94Q100,100,94,100L6,100Q0,100,0,94Z" stroke-width="3" stroke-dasharray="13,3" opacity="1"></path><text transform="matrix(1,0,0,1,0,0)" style="text-anchor: middle; font: normal normal 200 12px/normal Arial;" x="350" y="125" text-anchor="middle" font="10px &quot;Arial&quot;" stroke="#000000" fill="#000000" font-size="12px" font-weight="200" stroke-width="0" opacity="1" class="c0b84299-5efe-446f-ab4c-447793a75ed7--child "><tspan dy="4.361538461538462">sell</tspan></text><text transform="matrix(1,0,0,1,0,0)" style="text-anchor: middle; font: normal normal 700 12px/normal Arial;" x="350" y="63" text-anchor="middle" font="10px &quot;Arial&quot;" stroke="#000000" fill="#000000" font-size="12px" font-weight="700" stroke-width="0" opacity="1" class="c0b84299-5efe-446f-ab4c-447793a75ed7--child "><tspan dy="4.361538461538462">admin,seller</tspan></text><text transform="matrix(1,0,0,1,0,0)" style="text-anchor: middle; font: italic normal normal 12px/normal Arial;" x="350" y="145" text-anchor="middle" font="10px &quot;Arial&quot;" stroke="none" fill="#9E9E9E" font-size="12px" font-weight="normal" font-style="italic" stroke-width="1" opacity="1" class="c0b84299-5efe-446f-ab4c-447793a75ed7--child "><tspan dy="4.361538461538462"></tspan></text><circle transform="matrix(1,0,0,1,0,0)" cx="154.99947131905662" cy="109.0650320539684" r="4" fill="#29A81A" stroke="#29A81A" stroke-width="0" class="arrow eRelation"></circle><text transform="matrix(1,0,0,1,0,0)" style="text-anchor: middle; font: normal normal normal 22px/normal Arial;" x="270.0005286809434" y="110.9349679460316" text-anchor="middle" font="10px &quot;Arial&quot;" stroke="#29A81A" fill="#29A81A" stroke-width="0" font-size="22px" class="arrowExtension eRelation"><tspan dy="7.996153846153847">+</tspan></text><text transform="matrix(0.0175,-0.9998,0.9998,0.0175,144.7087,368.8014)" style="text-anchor: middle; font: normal normal 200 14px/normal Arial;" x="260.00185038330176" y="110.7723878111106" text-anchor="middle" font="10px &quot;Arial&quot;" stroke="#29A81A" fill="#29A81A" stroke-width="0" font-size="14px" font-weight="200" class="arrowHead eRelation"><tspan dy="5.088461538461539">▼</tspan></text><path transform="matrix(1,0,0,1,0,0)" fill="none" stroke="#29A81A" d="M151,109L262.002,110.805" arrow-start="none" arrow-end="none" stroke-width="2.2"></path><text transform="matrix(1,0,0,1,0,0)" style="text-anchor: middle; font: normal normal 200 12px/normal Arial;" x="206.501" y="101.9025" text-anchor="middle" font="10px &quot;Arial&quot;" stroke="none" fill="#29A81A" font-size="12px" font-weight="200" stroke-width="0" class="eRelation"><tspan dy="4.361538461538462"></tspan></text><text transform="matrix(1,0,0,1,0,0)" style="text-anchor: middle; font: normal normal 200 12px/normal Arial;" x="206.501" y="117.9025" text-anchor="middle" font="10px &quot;Arial&quot;" stroke="none" fill="#29A81A" font-size="12px" font-weight="200" stroke-width="0" class="eRelation"><tspan dy="4.361538461538462"></tspan></text><circle transform="matrix(1,0,0,1,0,0)" cx="277.94976252766685" cy="131.1319620044267" r="4" fill="#29A81A" stroke="#29A81A" stroke-width="0" class="arrow eRelation"></circle><text transform="matrix(1,0,0,1,0,0)" style="text-anchor: middle; font: normal normal 200 14px/normal Arial;" x="295.05023747233315" y="133.8680379955733" text-anchor="middle" font="10px &quot;Arial&quot;" stroke="#29A81A" fill="#29A81A" stroke-width="0" font-size="14px" font-weight="200" class="arrowExtension eRelation"><tspan dy="5.088461538461539">∓</tspan></text><text transform="matrix(0.1736,-0.9848,0.9848,0.1736,105.3772,390.1599)" style="text-anchor: middle; font: normal normal 200 14px/normal Arial;" x="285.17583115316614" y="132.28813298450657" text-anchor="middle" font="10px &quot;Arial&quot;" stroke="#29A81A" fill="#29A81A" stroke-width="0" font-size="14px" font-weight="200" class="arrowHead eRelation"><tspan dy="5.088461538461539">▼</tspan></text><path transform="matrix(1,0,0,1,0,0)" fill="none" stroke="#29A81A" d="M274,130.5L287.151,132.604" arrow-start="none" arrow-end="none" stroke-width="2.2"></path><text transform="matrix(1,0,0,1,0,0)" style="text-anchor: middle; font: normal normal 200 12px/normal Arial;" x="280.57550000000003" y="123.55200000000002" text-anchor="middle" font="10px &quot;Arial&quot;" stroke="none" fill="#29A81A" font-size="12px" font-weight="200" stroke-width="0" class="eRelation"><tspan dy="4.361538461538462">[ deprecationDate &gt; now ]</tspan></text><text transform="matrix(1,0,0,1,0,0)" style="text-anchor: middle; font: normal normal 200 12px/normal Arial;" x="280.57550000000003" y="139.55200000000002" text-anchor="middle" font="10px &quot;Arial&quot;" stroke="none" fill="#29A81A" font-size="12px" font-weight="200" stroke-width="0" class="eRelation"><tspan dy="4.361538461538462"></tspan></text></svg>