<svg xmlns="http://www.w3.org/2000/svg" xmlns:xlink="http://www.w3.org/1999/xlink" width="410" version="1.1" height="372.5" viewBox="345 57.5 420 382.5"><path transform="matrix(1,0,0,1,650,100)" fill="#f9f7ed" stroke="#cccccc" d="M0,6Q0,0,6,0L94,0Q100,0,100,6L100,25Q100,25,100,25L0,25Q0,25,0,25Z" stroke-width="3" stroke-dasharray="13,3"></path><path transform="matrix(1,0,0,1,650,125)" fill="#f9f7ed" stroke="#cccccc" d="M0,0Q0,0,0,0L100,0Q100,0,100,0L100,94Q100,100,94,100L6,100Q0,100,0,94Z" stroke-width="3" stroke-dasharray="13,3"></path><text transform="matrix(1,0,0,1,0,0)" style="text-anchor: middle; font: normal normal 200 12px/normal Arial;" x="700" y="175" text-anchor="middle" font="10px &quot;Arial&quot;" stroke="#000000" fill="#000000" font-size="12px" font-weight="200" stroke-width="0"><tspan dy="4.361538461538462">withdraw</tspan></text><text transform="matrix(1,0,0,1,0,0)" style="text-anchor: middle; font: normal normal 700 12px/normal Arial;" x="700" y="113" text-anchor="middle" font="10px &quot;Arial&quot;" stroke="#000000" fill="#000000" font-size="12px" font-weight="700" stroke-width="0"><tspan dy="4.361538461538462"></tspan></text><text transform="matrix(1,0,0,1,0,0)" style="text-anchor: middle; font: italic normal normal 12px/normal Arial;" x="700" y="195" text-anchor="middle" font="10px &quot;Arial&quot;" stroke="none" fill="#9E9E9E" font-size="12px" font-weight="normal" font-style="italic" stroke-width="1"><tspan dy="4.361538461538462"></tspan></text><path transform="matrix(1,0,0,1,350,100)" fill="#f9f7ed" stroke="#cccccc" d="M0,6Q0,0,6,0L94,0Q100,0,100,6L100,25Q100,25,100,25L0,25Q0,25,0,25Z" stroke-width="3"></path><path transform="matrix(1,0,0,1,350,125)" fill="#f9f7ed" stroke="#cccccc" d="M0,0Q0,0,0,0L100,0Q100,0,100,0L100,94Q100,100,94,100L6,100Q0,100,0,94Z" stroke-width="3"></path><text transform="matrix(1,0,0,1,0,0)" style="text-anchor: middle; font: normal normal 200 12px/normal Arial;" x="400" y="175" text-anchor="middle" font="10px &quot;Arial&quot;" stroke="#000000" fill="#000000" font-size="12px" font-weight="200" stroke-width="0"><tspan dy="4.361538461538462">deposit</tspan></text><text transform="matrix(1,0,0,1,0,0)" style="text-anchor: middle; font: normal normal 700 12px/normal Arial;" x="400" y="113" text-anchor="middle" font="10px &quot;Arial&quot;" stroke="#000000" fill="#000000" font-size="12px" font-weight="700" stroke-width="0"><tspan dy="4.361538461538462"></tspan></text><path transform="matrix(1,0,0,1,430,125)" fill="#ffffff" stroke="#cccccc" d="M0,0L0,20L20,20" font-size="18" font-weight="bold" stroke-width="2"></path><text transform="matrix(1,0,0,1,0,0)" style="text-anchor: middle; font: italic normal normal 12px/normal Arial;" x="400" y="195" text-anchor="middle" font="10px &quot;Arial&quot;" stroke="none" fill="#9E9E9E" font-size="12px" font-weight="normal" font-style="italic" stroke-width="1"><tspan dy="4.361538461538462"></tspan></text><path transform="matrix(1,0,0,1,500,300)" fill="#f9f7ed" stroke="#cccccc" d="M0,6Q0,0,6,0L94,0Q100,0,100,6L100,25Q100,25,100,25L0,25Q0,25,0,25Z" stroke-width="3" stroke-dasharray="13,3"></path><path transform="matrix(1,0,0,1,500,325)" fill="#f9f7ed" stroke="#cccccc" d="M0,0Q0,0,0,0L100,0Q100,0,100,0L100,94Q100,100,94,100L6,100Q0,100,0,94Z" stroke-width="3" stroke-dasharray="13,3"></path><text transform="matrix(1,0,0,1,0,0)" style="text-anchor: middle; font: normal normal 200 12px/normal Arial;" x="550" y="375" text-anchor="middle" font="10px &quot;Arial&quot;" stroke="#000000" fill="#000000" font-size="12px" font-weight="200" stroke-width="0"><tspan dy="4.361538461538462">balance</tspan></text><text transform="matrix(1,0,0,1,0,0)" style="text-anchor: middle; font: normal normal 700 12px/normal Arial;" x="550" y="313" text-anchor="middle" font="10px &quot;Arial&quot;" stroke="#000000" fill="#000000" font-size="12px" font-weight="700" stroke-width="0"><tspan dy="4.361538461538462"></tspan></text><text transform="matrix(1,0,0,1,0,0)" style="text-anchor: middle; font: italic normal normal 12px/normal Arial;" x="550" y="395" text-anchor="middle" font="10px &quot;Arial&quot;" stroke="none" fill="#9E9E9E" font-size="12px" font-weight="normal" font-style="italic" stroke-width="1"><tspan dy="4.361538461538462"></tspan></text><circle transform="matrix(1,0,0,1,0,0)" cx="455" cy="159" r="4" fill="#29A81A" stroke="#29A81A" stroke-width="0" class="arrow eRelation"></circle><text transform="matrix(1,0,0,1,0,0)" style="text-anchor: middle; font: normal normal 200 14px/normal Arial;" x="645" y="159" text-anchor="middle" font="10px &quot;Arial&quot;" stroke="#29A81A" fill="#29A81A" stroke-width="0" font-size="14px" font-weight="200" class="arrowExtension eRelation"><tspan dy="5.088461538461539">∓</tspan></text><text transform="matrix(0,-1,1,0,476,794)" style="text-anchor: middle; font: normal normal 200 14px/normal Arial;" x="635" y="159" text-anchor="middle" font="10px &quot;Arial&quot;" stroke="#29A81A" fill="#29A81A" stroke-width="0" font-size="14px" font-weight="200" class="arrowHead eRelation"><tspan dy="5.088461538461539">▼</tspan></text><path transform="matrix(1,0,0,1,0,0)" fill="none" stroke="#29A81A" d="M451,159L637,159" arrow-start="none" arrow-end="none" stroke-width="2.2"></path><text transform="matrix(1,0,0,1,0,0)" style="text-anchor: middle; font: normal normal 200 12px/normal Arial;" x="544" y="151" text-anchor="middle" font="10px &quot;Arial&quot;" stroke="none" fill="#29A81A" font-size="12px" font-weight="200" stroke-width="0" class="eRelation"><tspan dy="4.361538461538462">[ balance &gt; 0 ]</tspan></text><text transform="matrix(1,0,0,1,0,0)" style="text-anchor: middle; font: normal normal 200 12px/normal Arial;" x="544" y="167" text-anchor="middle" font="10px &quot;Arial&quot;" stroke="none" fill="#29A81A" font-size="12px" font-weight="200" stroke-width="0" class="eRelation"><tspan dy="4.361538461538462"></tspan></text><circle transform="matrix(1,0,0,1,0,0)" cx="659" cy="100" r="4" fill="red" stroke="red" stroke-width="0" class="arrow eRelation"></circle><text transform="matrix(1,0,0,1,0,0)" style="text-anchor: middle; font: normal normal 200 14px/normal Arial;" x="650" y="100" text-anchor="middle" font="10px &quot;Arial&quot;" stroke="red" fill="red" stroke-width="0" font-size="14px" font-weight="200" class="arrowExtension eRelation"><tspan dy="5.088461538461539">%</tspan></text><text transform="matrix(0.7071,-0.7071,0.7071,0.7071,121.4273,484.6661)" style="text-anchor: middle; font: normal normal 200 14px/normal Arial;" x="645.7573593128807" y="95.75735931288071" text-anchor="middle" font="10px &quot;Arial&quot;" stroke="red" fill="red" stroke-width="0" font-size="14px" font-weight="200" class="arrowHead eRelation"><tspan dy="5.088461538461539">▼</tspan></text><path transform="matrix(1,0,0,1,0,0)" fill="none" stroke="red" d="M659,100C639,80,630,80,650,100" arrow-start="none" arrow-end="none" stroke-width="2.2"></path><text transform="matrix(1,0,0,1,0,0)" style="text-anchor: middle; font: normal normal 200 12px/normal Arial;" x="633.8822420742565" y="69.5" text-anchor="middle" font="10px &quot;Arial&quot;" stroke="none" fill="red" font-size="12px" font-weight="200" stroke-width="0" class="eRelation"><tspan dy="4.361538461538462">[ balance &lt;= 0 ]</tspan></text><text transform="matrix(1,0,0,1,0,0)" style="text-anchor: middle; font: normal normal 200 12px/normal Arial;" x="633.8822420742565" y="85.5" text-anchor="middle" font="10px &quot;Arial&quot;" stroke="none" fill="red" font-size="12px" font-weight="200" stroke-width="0" class="eRelation"><tspan dy="4.361538461538462"></tspan></text><text transform="matrix(1,0,0,1,0,0)" style="text-anchor: middle; font: normal normal normal 22px/normal Arial;" x="602.218800784901" y="296.6717988226486" text-anchor="middle" font="10px &quot;Arial&quot;" stroke="#b0bfc3" fill="#b0bfc3" stroke-width="0" font-size="22px" class="arrow eRelation"><tspan dy="7.996153846153847">=</tspan></text><text transform="matrix(0.8387,0.5446,-0.5446,0.8387,255.8252,-283.6207)" style="text-anchor: middle; font: normal normal 200 14px/normal Arial;" x="606.6564023547028" y="290.0153964679459" text-anchor="middle" font="10px &quot;Arial&quot;" stroke="#b0bfc3" fill="#b0bfc3" stroke-width="0" font-size="14px" font-weight="200" class="arrowHead eRelation"><tspan dy="5.088461538461539">▼</tspan></text><path transform="matrix(1,0,0,1,0,0)" fill="none" stroke="#b0bfc3" d="M650,225L606.656,290.015" arrow-start="none" arrow-end="none" stroke-width="2.2"></path><text transform="matrix(1,0,0,1,0,0)" style="text-anchor: middle; font: normal normal 200 12px/normal Arial;" x="628.328" y="249.5075" text-anchor="middle" font="10px &quot;Arial&quot;" stroke="none" fill="#b0bfc3" font-size="12px" font-weight="200" stroke-width="0" class="eRelation"><tspan dy="4.361538461538462"></tspan></text><text transform="matrix(1,0,0,1,0,0)" style="text-anchor: middle; font: normal normal 200 12px/normal Arial;" x="628.328" y="265.5075" text-anchor="middle" font="10px &quot;Arial&quot;" stroke="none" fill="#b0bfc3" font-size="12px" font-weight="200" stroke-width="0" class="eRelation"><tspan dy="4.361538461538462">( balance - withdrawValue )</tspan></text><text transform="matrix(1,0,0,1,0,0)" style="text-anchor: middle; font: normal normal normal 22px/normal Arial;" x="497.7811992150991" y="296.6717988226486" text-anchor="middle" font="10px &quot;Arial&quot;" stroke="#b0bfc3" fill="#b0bfc3" stroke-width="0" font-size="22px" class="arrow eRelation"><tspan dy="7.996153846153847">=</tspan></text><text transform="matrix(0.8387,-0.5446,0.5446,0.8387,-78.3629,315.4822)" style="text-anchor: middle; font: normal normal 200 14px/normal Arial;" x="493.3435976452972" y="290.0153964679459" text-anchor="middle" font="10px &quot;Arial&quot;" stroke="#b0bfc3" fill="#b0bfc3" stroke-width="0" font-size="14px" font-weight="200" class="arrowHead eRelation"><tspan dy="5.088461538461539">▼</tspan></text><path transform="matrix(1,0,0,1,0,0)" fill="none" stroke="#b0bfc3" d="M450,225L493.344,290.015" arrow-start="none" arrow-end="none" stroke-width="2.2"></path><text transform="matrix(1,0,0,1,0,0)" style="text-anchor: middle; font: normal normal 200 12px/normal Arial;" x="471.672" y="249.5075" text-anchor="middle" font="10px &quot;Arial&quot;" stroke="none" fill="#b0bfc3" font-size="12px" font-weight="200" stroke-width="0" class="eRelation"><tspan dy="4.361538461538462"></tspan></text><text transform="matrix(1,0,0,1,0,0)" style="text-anchor: middle; font: normal normal 200 12px/normal Arial;" x="471.672" y="265.5075" text-anchor="middle" font="10px &quot;Arial&quot;" stroke="none" fill="#b0bfc3" font-size="12px" font-weight="200" stroke-width="0" class="eRelation"><tspan dy="4.361538461538462">( balance + depositValue )</tspan></text></svg>