<svg xmlns="http://www.w3.org/2000/svg" xmlns:xlink="http://www.w3.org/1999/xlink" width="310" version="1.1" height="335" viewBox="95 45 320 345"><path transform="matrix(1,0,0,1,100,50)" fill="#f9f7ed" stroke="#cccccc" d="M0,6Q0,0,6,0L94,0Q100,0,100,6L100,25Q100,25,100,25L0,25Q0,25,0,25Z" stroke-width="3"></path><path transform="matrix(1,0,0,1,100,75)" fill="#f9f7ed" stroke="#cccccc" d="M0,0Q0,0,0,0L100,0Q100,0,100,0L100,94Q100,100,94,100L6,100Q0,100,0,94Z" stroke-width="3"></path><text transform="matrix(1,0,0,1,0,0)" style="text-anchor: middle; font: normal normal 200 12px/normal Arial;" x="150" y="125" text-anchor="middle" font="10px &quot;Arial&quot;" stroke="#000000" fill="#000000" font-size="12px" font-weight="200" stroke-width="0"><tspan dy="4.361538461538462">escape</tspan></text><text transform="matrix(1,0,0,1,0,0)" style="text-anchor: middle; font: normal normal 700 12px/normal Arial;" x="150" y="63" text-anchor="middle" font="10px &quot;Arial&quot;" stroke="#000000" fill="#000000" font-size="12px" font-weight="700" stroke-width="0"><tspan dy="4.361538461538462">admin</tspan></text><text transform="matrix(1,0,0,1,0,0)" style="text-anchor: middle; font: italic normal normal 12px/normal Arial;" x="150" y="145" text-anchor="middle" font="10px &quot;Arial&quot;" stroke="none" fill="#9E9E9E" font-size="12px" font-weight="normal" font-style="italic" stroke-width="1"><tspan dy="4.361538461538462"></tspan></text><path transform="matrix(1,0,0,1,300,50)" fill="#f9f7ed" stroke="#cccccc" d="M0,6Q0,0,6,0L94,0Q100,0,100,6L100,25Q100,25,100,25L0,25Q0,25,0,25Z" stroke-width="3" stroke-dasharray="13,3"></path><path transform="matrix(1,0,0,1,300,75)" fill="#f9f7ed" stroke="#cccccc" d="M0,0Q0,0,0,0L100,0Q100,0,100,0L100,94Q100,100,94,100L6,100Q0,100,0,94Z" stroke-width="3" stroke-dasharray="13,3"></path><text transform="matrix(1,0,0,1,0,0)" style="text-anchor: middle; font: normal normal 200 12px/normal Arial;" x="350" y="125" text-anchor="middle" font="10px &quot;Arial&quot;" stroke="#000000" fill="#000000" font-size="12px" font-weight="200" stroke-width="0"><tspan dy="4.361538461538462">transferEverything</tspan></text><text transform="matrix(1,0,0,1,0,0)" style="text-anchor: middle; font: normal normal 700 12px/normal Arial;" x="350" y="63" text-anchor="middle" font="10px &quot;Arial&quot;" stroke="#000000" fill="#000000" font-size="12px" font-weight="700" stroke-width="0"><tspan dy="4.361538461538462">admin</tspan></text><text transform="matrix(1,0,0,1,0,0)" style="text-anchor: middle; font: italic normal normal 12px/normal Arial;" x="350" y="145" text-anchor="middle" font="10px &quot;Arial&quot;" stroke="none" fill="#9E9E9E" font-size="12px" font-weight="normal" font-style="italic" stroke-width="1"><tspan dy="4.361538461538462"></tspan></text><path transform="matrix(1,0,0,1,300,250)" fill="#f9f7ed" stroke="#cccccc" d="M0,6Q0,0,6,0L94,0Q100,0,100,6L100,25Q100,25,100,25L0,25Q0,25,0,25Z" stroke-width="3"></path><path transform="matrix(1,0,0,1,300,275)" fill="#f9f7ed" stroke="#cccccc" d="M0,0Q0,0,0,0L100,0Q100,0,100,0L100,94Q100,100,94,100L6,100Q0,100,0,94Z" stroke-width="3"></path><text transform="matrix(1,0,0,1,0,0)" style="text-anchor: middle; font: normal normal 200 12px/normal Arial;" x="350" y="325" text-anchor="middle" font="10px &quot;Arial&quot;" stroke="#000000" fill="#000000" font-size="12px" font-weight="200" stroke-width="0"><tspan dy="4.361538461538462">buy</tspan></text><text transform="matrix(1,0,0,1,0,0)" style="text-anchor: middle; font: normal normal 700 12px/normal Arial;" x="350" y="263" text-anchor="middle" font="10px &quot;Arial&quot;" stroke="#000000" fill="#000000" font-size="12px" font-weight="700" stroke-width="0"><tspan dy="4.361538461538462">user</tspan></text><text transform="matrix(1,0,0,1,0,0)" style="text-anchor: middle; font: italic normal normal 12px/normal Arial;" x="350" y="345" text-anchor="middle" font="10px &quot;Arial&quot;" stroke="none" fill="#9E9E9E" font-size="12px" font-weight="normal" font-style="italic" stroke-width="1"><tspan dy="4.361538461538462"></tspan></text><path transform="matrix(1,0,0,1,100,250)" fill="#f9f7ed" stroke="#cccccc" d="M0,6Q0,0,6,0L94,0Q100,0,100,6L100,25Q100,25,100,25L0,25Q0,25,0,25Z" stroke-width="3"></path><path transform="matrix(1,0,0,1,100,275)" fill="#f9f7ed" stroke="#cccccc" d="M0,0Q0,0,0,0L100,0Q100,0,100,0L100,94Q100,100,94,100L6,100Q0,100,0,94Z" stroke-width="3"></path><text transform="matrix(1,0,0,1,0,0)" style="text-anchor: middle; font: normal normal 200 12px/normal Arial;" x="150" y="325" text-anchor="middle" font="10px &quot;Arial&quot;" stroke="#000000" fill="#000000" font-size="12px" font-weight="200" stroke-width="0"><tspan dy="4.361538461538462">sell</tspan></text><text transform="matrix(1,0,0,1,0,0)" style="text-anchor: middle; font: normal normal 700 12px/normal Arial;" x="150" y="263" text-anchor="middle" font="10px &quot;Arial&quot;" stroke="#000000" fill="#000000" font-size="12px" font-weight="700" stroke-width="0"><tspan dy="4.361538461538462">user</tspan></text><text transform="matrix(1,0,0,1,0,0)" style="text-anchor: middle; font: italic normal normal 12px/normal Arial;" x="150" y="345" text-anchor="middle" font="10px &quot;Arial&quot;" stroke="none" fill="#9E9E9E" font-size="12px" font-weight="normal" font-style="italic" stroke-width="1"><tspan dy="4.361538461538462"></tspan></text><circle transform="matrix(1,0,0,1,0,0)" cx="205" cy="109" r="4" fill="#1E90FF" stroke="#1E90FF" stroke-width="0" class="arrow eRelation"></circle><text transform="matrix(0,-1,1,0,186,404)" style="text-anchor: middle; font: normal normal 200 14px/normal Arial;" x="295" y="109" text-anchor="middle" font="10px &quot;Arial&quot;" stroke="#1E90FF" fill="#1E90FF" stroke-width="0" font-size="14px" font-weight="200" class="arrowHead eRelation"><tspan dy="5.088461538461539">▼</tspan></text><path transform="matrix(1,0,0,1,0,0)" fill="none" stroke="#1E90FF" d="M201,109L299,109" arrow-start="none" arrow-end="none" stroke-width="2.2"></path><text transform="matrix(1,0,0,1,0,0)" style="text-anchor: middle; font: normal normal 200 12px/normal Arial;" x="250" y="101" text-anchor="middle" font="10px &quot;Arial&quot;" stroke="none" fill="#1E90FF" font-size="12px" font-weight="200" stroke-width="0" class="eRelation"><tspan dy="4.361538461538462"></tspan></text><text transform="matrix(1,0,0,1,0,0)" style="text-anchor: middle; font: normal normal 200 12px/normal Arial;" x="250" y="117" text-anchor="middle" font="10px &quot;Arial&quot;" stroke="none" fill="#1E90FF" font-size="12px" font-weight="200" stroke-width="0" class="eRelation"><tspan dy="4.361538461538462"></tspan></text><circle transform="matrix(1,0,0,1,0,0)" cx="205" cy="121.75" r="4" fill="#29A81A" stroke="#29A81A" stroke-width="0" class="arrow eRelation"></circle><text transform="matrix(1,0,0,1,0,0)" style="text-anchor: middle; font: normal normal normal 22px/normal Arial;" x="295" y="121.75" text-anchor="middle" font="10px &quot;Arial&quot;" stroke="#29A81A" fill="#29A81A" stroke-width="0" font-size="22px" class="arrowExtension eRelation"><tspan dy="7.996153846153847">+</tspan></text><text transform="matrix(0,-1,1,0,163.25,406.75)" style="text-anchor: middle; font: normal normal 200 14px/normal Arial;" x="285" y="121.75" text-anchor="middle" font="10px &quot;Arial&quot;" stroke="#29A81A" fill="#29A81A" stroke-width="0" font-size="14px" font-weight="200" class="arrowHead eRelation"><tspan dy="5.088461538461539">▼</tspan></text><path transform="matrix(1,0,0,1,0,0)" fill="none" stroke="#29A81A" d="M201,121.75L287,121.75" arrow-start="none" arrow-end="none" stroke-width="2.2"></path><text transform="matrix(1,0,0,1,0,0)" style="text-anchor: middle; font: normal normal 200 12px/normal Arial;" x="244" y="113.75" text-anchor="middle" font="10px &quot;Arial&quot;" stroke="none" fill="#29A81A" font-size="12px" font-weight="200" stroke-width="0" class="eRelation"><tspan dy="4.361538461538462"></tspan></text><text transform="matrix(1,0,0,1,0,0)" style="text-anchor: middle; font: normal normal 200 12px/normal Arial;" x="244" y="129.75" text-anchor="middle" font="10px &quot;Arial&quot;" stroke="none" fill="#29A81A" font-size="12px" font-weight="200" stroke-width="0" class="eRelation"><tspan dy="4.361538461538462"></tspan></text><circle transform="matrix(1,0,0,1,0,0)" cx="147" cy="180" r="4" fill="red" stroke="red" stroke-width="0" class="arrow eRelation"></circle><text transform="matrix(1,0,0,1,0,0)" style="text-anchor: middle; font: normal normal 200 14px/normal Arial;" x="147" y="246" text-anchor="middle" font="10px &quot;Arial&quot;" stroke="red" fill="red" stroke-width="0" font-size="14px" font-weight="200" class="arrowExtension eRelation"><tspan dy="5.088461538461539">%</tspan></text><text transform="matrix(1,0,0,1,0,0)" style="text-anchor: middle; font: normal normal 200 14px/normal Arial;" x="147" y="236" text-anchor="middle" font="10px &quot;Arial&quot;" stroke="red" fill="red" stroke-width="0" font-size="14px" font-weight="200" class="arrowHead eRelation"><tspan dy="5.088461538461539">▼</tspan></text><path transform="matrix(1,0,0,1,0,0)" fill="none" stroke="red" d="M147,176L147,238" arrow-start="none" arrow-end="none" stroke-width="2.2"></path><text transform="matrix(1,0,0,1,0,0)" style="text-anchor: middle; font: normal normal 200 12px/normal Arial;" x="147" y="199" text-anchor="middle" font="10px &quot;Arial&quot;" stroke="none" fill="red" font-size="12px" font-weight="200" stroke-width="0" class="eRelation"><tspan dy="4.361538461538462"></tspan></text><text transform="matrix(1,0,0,1,0,0)" style="text-anchor: middle; font: normal normal 200 12px/normal Arial;" x="147" y="215" text-anchor="middle" font="10px &quot;Arial&quot;" stroke="none" fill="red" font-size="12px" font-weight="200" stroke-width="0" class="eRelation"><tspan dy="4.361538461538462"></tspan></text><circle transform="matrix(1,0,0,1,0,0)" cx="203.2" cy="177.4" r="4" fill="red" stroke="red" stroke-width="0" class="arrow eRelation"></circle><text transform="matrix(1,0,0,1,0,0)" style="text-anchor: middle; font: normal normal 200 14px/normal Arial;" x="296.8" y="247.6" text-anchor="middle" font="10px &quot;Arial&quot;" stroke="red" fill="red" stroke-width="0" font-size="14px" font-weight="200" class="arrowExtension eRelation"><tspan dy="5.088461538461539">%</tspan></text><text transform="matrix(0.6018,-0.7986,0.7986,0.6018,-77.9545,326.8474)" style="text-anchor: middle; font: normal normal 200 14px/normal Arial;" x="288.8" y="241.6" text-anchor="middle" font="10px &quot;Arial&quot;" stroke="red" fill="red" stroke-width="0" font-size="14px" font-weight="200" class="arrowHead eRelation"><tspan dy="5.088461538461539">▼</tspan></text><path transform="matrix(1,0,0,1,0,0)" fill="none" stroke="red" d="M200,175L290.4,242.8" arrow-start="none" arrow-end="none" stroke-width="2.2"></path><text transform="matrix(1,0,0,1,0,0)" style="text-anchor: middle; font: normal normal 200 12px/normal Arial;" x="245.2" y="200.9" text-anchor="middle" font="10px &quot;Arial&quot;" stroke="none" fill="red" font-size="12px" font-weight="200" stroke-width="0" class="eRelation"><tspan dy="4.361538461538462"></tspan></text><text transform="matrix(1,0,0,1,0,0)" style="text-anchor: middle; font: normal normal 200 12px/normal Arial;" x="245.2" y="216.9" text-anchor="middle" font="10px &quot;Arial&quot;" stroke="none" fill="red" font-size="12px" font-weight="200" stroke-width="0" class="eRelation"><tspan dy="4.361538461538462"></tspan></text></svg>