<svg xmlns="http://www.w3.org/2000/svg" xmlns:xlink="http://www.w3.org/1999/xlink" width="325.50738525390625" version="1.1" height="150.5012969970703" viewBox="429.49261474609375 129.4987030029297 335.50738525390625 160.5012969970703"><path transform="matrix(1,0,0,1,450,150)" fill="#f9f7ed" stroke="#cccccc" d="M0,6Q0,0,6,0L94,0Q100,0,100,6L100,25Q100,25,100,25L0,25Q0,25,0,25Z" stroke-width="3"></path><path transform="matrix(1,0,0,1,450,175)" fill="#f9f7ed" stroke="#cccccc" d="M0,0Q0,0,0,0L100,0Q100,0,100,0L100,94Q100,100,94,100L6,100Q0,100,0,94Z" stroke-width="3"></path><text transform="matrix(1,0,0,1,0,0)" style="text-anchor: middle; font: normal normal 200 12px/normal Arial;" x="500" y="225" text-anchor="middle" font="10px &quot;Arial&quot;" stroke="#000000" fill="#000000" font-size="12px" font-weight="200" stroke-width="0"><tspan dy="-2.9076923076923076">requestOffCh</tspan></text>,<text transform="matrix(1,0,0,1,0,0)" style="text-anchor: middle; font: normal normal 200 12px/normal Arial;" x="500" y="225" text-anchor="middle" font="10px &quot;Arial&quot;" stroke="#000000" fill="#000000" font-size="12px" font-weight="200" stroke-width="0"><tspan dy="11.630769230769232">ainData</tspan></text><text transform="matrix(1,0,0,1,0,0)" style="text-anchor: middle; font: normal normal 700 12px/normal Arial;" x="500" y="163" text-anchor="middle" font="10px &quot;Arial&quot;" stroke="#000000" fill="#000000" font-size="12px" font-weight="700" stroke-width="0"><tspan dy="4.361538461538462"></tspan></text><text transform="matrix(1,0,0,1,0,0)" style="text-anchor: middle; font: italic normal normal 12px/normal Arial;" x="500" y="245" text-anchor="middle" font="10px &quot;Arial&quot;" stroke="none" fill="#9E9E9E" font-size="12px" font-weight="normal" font-style="italic" stroke-width="1"><tspan dy="4.361538461538462"></tspan></text><path transform="matrix(1,0,0,1,650,150)" fill="#f9f7ed" stroke="#cccccc" d="M0,6Q0,0,6,0L94,0Q100,0,100,6L100,25Q100,25,100,25L0,25Q0,25,0,25Z" stroke-width="3" stroke-dasharray="13,3"></path><path transform="matrix(1,0,0,1,650,175)" fill="#f9f7ed" stroke="#cccccc" d="M0,0Q0,0,0,0L100,0Q100,0,100,0L100,94Q100,100,94,100L6,100Q0,100,0,94Z" stroke-width="3" stroke-dasharray="13,3"></path><text transform="matrix(1,0,0,1,0,0)" style="text-anchor: middle; font: normal normal 200 12px/normal Arial;" x="700" y="225" text-anchor="middle" font="10px &quot;Arial&quot;" stroke="#000000" fill="#000000" font-size="12px" font-weight="200" stroke-width="0"><tspan dy="4.361538461538462">callback</tspan></text><text transform="matrix(1,0,0,1,0,0)" style="text-anchor: middle; font: normal normal 700 12px/normal Arial;" x="700" y="163" text-anchor="middle" font="10px &quot;Arial&quot;" stroke="#000000" fill="#000000" font-size="12px" font-weight="700" stroke-width="0"><tspan dy="4.361538461538462">OracleServer</tspan></text><text transform="matrix(1,0,0,1,0,0)" style="text-anchor: middle; font: italic normal normal 12px/normal Arial;" x="700" y="245" text-anchor="middle" font="10px &quot;Arial&quot;" stroke="none" fill="#9E9E9E" font-size="12px" font-weight="normal" font-style="italic" stroke-width="1"><tspan dy="4.361538461538462"></tspan></text><circle transform="matrix(1,0,0,1,0,0)" cx="555" cy="209" r="4" fill="#1E90FF" stroke="#1E90FF" stroke-width="0" class="arrow eRelation"></circle><text transform="matrix(0,-1,1,0,436,854)" style="text-anchor: middle; font: normal normal 200 14px/normal Arial;" x="645" y="209" text-anchor="middle" font="10px &quot;Arial&quot;" stroke="#1E90FF" fill="#1E90FF" stroke-width="0" font-size="14px" font-weight="200" class="arrowHead eRelation"><tspan dy="5.088461538461539">▼</tspan></text><path transform="matrix(1,0,0,1,0,0)" fill="none" stroke="#1E90FF" d="M551,209L649,209" arrow-start="none" arrow-end="none" stroke-width="2.2"></path><text transform="matrix(1,0,0,1,0,0)" style="text-anchor: middle; font: normal normal 200 12px/normal Arial;" x="600" y="201" text-anchor="middle" font="10px &quot;Arial&quot;" stroke="none" fill="#1E90FF" font-size="12px" font-weight="200" stroke-width="0" class="eRelation"><tspan dy="4.361538461538462"></tspan></text><text transform="matrix(1,0,0,1,0,0)" style="text-anchor: middle; font: normal normal 200 12px/normal Arial;" x="600" y="217" text-anchor="middle" font="10px &quot;Arial&quot;" stroke="none" fill="#1E90FF" font-size="12px" font-weight="200" stroke-width="0" class="eRelation"><tspan dy="4.361538461538462"></tspan></text><circle transform="matrix(1,0,0,1,0,0)" cx="555" cy="221.75" r="4" fill="#29A81A" stroke="#29A81A" stroke-width="0" class="arrow eRelation"></circle><text transform="matrix(1,0,0,1,0,0)" style="text-anchor: middle; font: normal normal normal 22px/normal Arial;" x="645" y="221.75" text-anchor="middle" font="10px &quot;Arial&quot;" stroke="#29A81A" fill="#29A81A" stroke-width="0" font-size="22px" class="arrowExtension eRelation"><tspan dy="7.996153846153847">+</tspan></text><text transform="matrix(0,-1,1,0,413.25,856.75)" style="text-anchor: middle; font: normal normal 200 14px/normal Arial;" x="635" y="221.75" text-anchor="middle" font="10px &quot;Arial&quot;" stroke="#29A81A" fill="#29A81A" stroke-width="0" font-size="14px" font-weight="200" class="arrowHead eRelation"><tspan dy="5.088461538461539">▼</tspan></text><path transform="matrix(1,0,0,1,0,0)" fill="none" stroke="#29A81A" d="M551,221.75L637,221.75" arrow-start="none" arrow-end="none" stroke-width="2.2"></path><text transform="matrix(1,0,0,1,0,0)" style="text-anchor: middle; font: normal normal 200 12px/normal Arial;" x="594" y="213.75" text-anchor="middle" font="10px &quot;Arial&quot;" stroke="none" fill="#29A81A" font-size="12px" font-weight="200" stroke-width="0" class="eRelation"><tspan dy="4.361538461538462"></tspan></text><text transform="matrix(1,0,0,1,0,0)" style="text-anchor: middle; font: normal normal 200 12px/normal Arial;" x="594" y="229.75" text-anchor="middle" font="10px &quot;Arial&quot;" stroke="none" fill="#29A81A" font-size="12px" font-weight="200" stroke-width="0" class="eRelation"><tspan dy="4.361538461538462"></tspan></text><circle transform="matrix(1,0,0,1,0,0)" cx="459" cy="150" r="4" fill="red" stroke="red" stroke-width="0" class="arrow eRelation"></circle><text transform="matrix(1,0,0,1,0,0)" style="text-anchor: middle; font: normal normal 200 14px/normal Arial;" x="450" y="150" text-anchor="middle" font="10px &quot;Arial&quot;" stroke="red" fill="red" stroke-width="0" font-size="14px" font-weight="200" class="arrowExtension eRelation"><tspan dy="5.088461538461539">%</tspan></text><text transform="matrix(0.7071,-0.7071,0.7071,0.7071,27.4933,357.8894)" style="text-anchor: middle; font: normal normal 200 14px/normal Arial;" x="445.75735931288074" y="145.7573593128807" text-anchor="middle" font="10px &quot;Arial&quot;" stroke="red" fill="red" stroke-width="0" font-size="14px" font-weight="200" class="arrowHead eRelation"><tspan dy="5.088461538461539">▼</tspan></text><path transform="matrix(1,0,0,1,0,0)" fill="none" stroke="red" d="M459,150C439,130,430,130,450,150" arrow-start="none" arrow-end="none" stroke-width="2.2"></path><text transform="matrix(1,0,0,1,0,0)" style="text-anchor: middle; font: normal normal 200 12px/normal Arial;" x="433.8822420742565" y="119.5" text-anchor="middle" font="10px &quot;Arial&quot;" stroke="none" fill="red" font-size="12px" font-weight="200" stroke-width="0" class="eRelation"><tspan dy="4.361538461538462"></tspan></text><text transform="matrix(1,0,0,1,0,0)" style="text-anchor: middle; font: normal normal 200 12px/normal Arial;" x="433.8822420742565" y="135.5" text-anchor="middle" font="10px &quot;Arial&quot;" stroke="none" fill="red" font-size="12px" font-weight="200" stroke-width="0" class="eRelation"><tspan dy="4.361538461538462"></tspan></text></svg>