<svg xmlns="http://www.w3.org/2000/svg" xmlns:xlink="http://www.w3.org/1999/xlink" width="110" version="1.1" height="135" viewBox="95 45 120 145"><path transform="matrix(1,0,0,1,100,50)" fill="#f9f7ed" stroke="#cccccc" d="M0,6Q0,0,6,0L94,0Q100,0,100,6L100,25Q100,25,100,25L0,25Q0,25,0,25Z" stroke-width="3" opacity="1" x="150" y="150"></path><path transform="matrix(1,0,0,1,100,75)" fill="#f9f7ed" stroke="#cccccc" d="M0,0Q0,0,0,0L100,0Q100,0,100,0L100,94Q100,100,94,100L6,100Q0,100,0,94Z" stroke-width="3" opacity="1"></path><text transform="matrix(1,0,0,1,0,0)" style="text-anchor: middle; font: normal normal 200 12px/normal Arial;" x="150" y="125" text-anchor="middle" font="10px &quot;Arial&quot;" stroke="#000000" fill="#000000" font-size="12px" font-weight="200" stroke-width="0" opacity="1"><tspan dy="4.361538461538462">transferToUser</tspan></text><text transform="matrix(1,0,0,1,0,0)" style="text-anchor: middle; font: normal normal 700 12px/normal Arial;" x="150" y="63" text-anchor="middle" font="10px &quot;Arial&quot;" stroke="#000000" fill="#000000" font-size="12px" font-weight="700" stroke-width="0" opacity="1"><tspan dy="4.361538461538462">admin</tspan></text><text transform="matrix(1,0,0,1,0,0)" style="text-anchor: middle; font: italic normal normal 12px/normal Arial;" x="150" y="145" text-anchor="middle" font="10px &quot;Arial&quot;" stroke="none" fill="#9E9E9E" font-size="12px" font-weight="normal" font-style="italic" opacity="1"><tspan dy="4.361538461538462"></tspan></text></svg>