<svg xmlns="http://www.w3.org/2000/svg" xmlns:xlink="http://www.w3.org/1999/xlink" width="175.00782775878906" version="1.1" height="225.875" viewBox="29.992168426513672 49.125 185.00782775878906 235.875"><path transform="matrix(1,0,0,1,50,75)" fill="#f9f7ed" stroke="#cccccc" d="M0,6Q0,0,6,0L144,0Q150,0,150,6L150,189Q150,195,144,195L6,195Q0,195,0,189Z" stroke-width="3" opacity="1" x="525" y="225" stroke-linecap="butt" stroke-dasharray="0"></path><text transform="matrix(1,0,0,1,0,0)" style="text-anchor: middle; font: normal normal 200 12px/normal Arial;" x="125" y="86" text-anchor="middle" font="10px &quot;Arial&quot;" stroke="#000000" fill="#000000" font-size="12px" font-weight="200" stroke-width="0" opacity="1"><tspan dy="4.361538461538462">destroyMe</tspan></text><text transform="matrix(1,0,0,1,0,0)" style="text-anchor: middle; font: normal normal 700 12px/normal Arial;" x="125" y="61" text-anchor="middle" font="10px &quot;Arial&quot;" stroke="#000000" fill="#000000" font-size="12px" font-weight="700" stroke-width="0" opacity="1"><tspan dy="4.361538461538462">admin</tspan></text><text transform="matrix(1,0,0,1,0,0)" style="text-anchor: middle; font: normal normal bold 18px/normal Arial;" x="185" y="257" text-anchor="middle" font="10px &quot;Arial&quot;" stroke="none" fill="#9E9E9E" font-size="18px" font-weight="bold" opacity="1" stroke-width="1"><tspan dy="6.542307692307693">s</tspan></text><text transform="matrix(1,0,0,1,0,0)" style="text-anchor: middle; font: italic normal normal 12px/normal Arial;" x="125" y="239" text-anchor="middle" font="10px &quot;Arial&quot;" stroke="none" fill="#9E9E9E" font-size="12px" font-weight="normal" font-style="italic" opacity="1" stroke-width="1"><tspan dy="4.361538461538462"></tspan></text><path transform="matrix(1,0,0,1,75,100)" fill="#f9f7ed" stroke="#cccccc" d="M0,6Q0,0,6,0L94,0Q100,0,100,6L100,25Q100,25,100,25L0,25Q0,25,0,25Z" stroke-width="3" opacity="1" x="1650" y="600" stroke-linecap="butt" stroke-dasharray="13,3"></path><path transform="matrix(1,0,0,1,75,125)" fill="#f9f7ed" stroke="#cccccc" d="M0,0Q0,0,0,0L100,0Q100,0,100,0L100,94Q100,100,94,100L6,100Q0,100,0,94Z" stroke-width="3" opacity="1" stroke-linecap="butt" stroke-dasharray="13,3"></path><text transform="matrix(1,0,0,1,0,0)" style="text-anchor: middle; font: normal normal 200 12px/normal Arial;" x="125" y="175" text-anchor="middle" font="10px &quot;Arial&quot;" stroke="#000000" fill="#000000" font-size="12px" font-weight="200" stroke-width="0" opacity="1" class="abdf846f-b49e-42cd-b74f-2d310f825b27--child "><tspan dy="4.361538461538462">selfdestruct</tspan></text><text transform="matrix(1,0,0,1,0,0)" style="text-anchor: middle; font: normal normal 700 12px/normal Arial;" x="125" y="113" text-anchor="middle" font="10px &quot;Arial&quot;" stroke="#000000" fill="#000000" font-size="12px" font-weight="700" stroke-width="0" opacity="1" class="abdf846f-b49e-42cd-b74f-2d310f825b27--child "><tspan dy="4.361538461538462">admin</tspan></text><text transform="matrix(1,0,0,1,0,0)" style="text-anchor: middle; font: italic normal normal 12px/normal Arial;" x="125" y="195" text-anchor="middle" font="10px &quot;Arial&quot;" stroke="none" fill="#9E9E9E" font-size="12px" font-weight="normal" font-style="italic" opacity="1" stroke-width="1" class="abdf846f-b49e-42cd-b74f-2d310f825b27--child "><tspan dy="4.361538461538462"></tspan></text><circle transform="matrix(1,0,0,1,0,0)" cx="52.9872611141445" cy="160.68101911086845" r="4" fill="#29A81A" stroke="#29A81A" stroke-width="0" class="arrow eRelation"></circle><text transform="matrix(1,0,0,1,0,0)" style="text-anchor: middle; font: normal normal normal 22px/normal Arial;" x="70.0127388858555" y="159.31898088913155" text-anchor="middle" font="10px &quot;Arial&quot;" stroke="#29A81A" fill="#29A81A" stroke-width="0" font-size="22px" class="arrowExtension eRelation"><tspan dy="7.996153846153847">+</tspan></text><text transform="matrix(-0.0698,-0.9976,0.9976,-0.0698,-95.4933,231.1839)" style="text-anchor: middle; font: normal normal 200 14px/normal Arial;" x="60.04458610049425" y="160.11643311196045" text-anchor="middle" font="10px &quot;Arial&quot;" stroke="#29A81A" fill="#29A81A" stroke-width="0" font-size="14px" font-weight="200" class="arrowHead eRelation"><tspan dy="5.088461538461539">▼</tspan></text><path transform="matrix(1,0,0,1,0,0)" fill="none" stroke="#29A81A" d="M49,161L62.038,159.957" arrow-start="none" arrow-end="none" stroke-width="2.2"></path><text transform="matrix(1,0,0,1,0,0)" style="text-anchor: middle; font: normal normal 200 12px/normal Arial;" x="55.519" y="152.4785" text-anchor="middle" font="10px &quot;Arial&quot;" stroke="none" fill="#29A81A" font-size="12px" font-weight="200" stroke-width="0" class="eRelation"><tspan dy="4.361538461538462"></tspan></text><text transform="matrix(1,0,0,1,0,0)" style="text-anchor: middle; font: normal normal 200 12px/normal Arial;" x="55.519" y="168.4785" text-anchor="middle" font="10px &quot;Arial&quot;" stroke="none" fill="#29A81A" font-size="12px" font-weight="200" stroke-width="0" class="eRelation"><tspan dy="4.361538461538462"></tspan></text><text transform="matrix(1,0,0,1,0,0)" style="text-anchor: middle; font: normal normal 200 18px/normal Arial;" x="70.05023747233318" y="183.8680379955733" text-anchor="middle" font="10px &quot;Arial&quot;" stroke="#FFA500" fill="#FFA500" stroke-width="0" font-size="18px" font-weight="200" class="arrow eRelation"><tspan dy="6.542307692307693">◆</tspan></text><text transform="matrix(0.1736,-0.9848,0.9848,0.1736,-128.4716,212.1017)" style="text-anchor: middle; font: normal normal 200 14px/normal Arial;" x="62.15071241699954" y="182.60411398671994" text-anchor="middle" font="10px &quot;Arial&quot;" stroke="#FFA500" fill="#FFA500" stroke-width="0" font-size="14px" font-weight="200" class="arrowHead eRelation"><tspan dy="5.088461538461539">▼</tspan></text><path transform="matrix(1,0,0,1,0,0)" fill="none" stroke="#FFA500" d="M49,180.5L62.151,182.604" arrow-start="none" arrow-end="none" stroke-width="2.2"></path><text transform="matrix(1,0,0,1,0,0)" style="text-anchor: middle; font: normal normal 200 12px/normal Arial;" x="55.575500000000005" y="173.55200000000002" text-anchor="middle" font="10px &quot;Arial&quot;" stroke="#FFA500" fill="#FFA500" font-size="12px" font-weight="200" stroke-width="0" class="eRelation"><tspan dy="4.361538461538462">[ P1W ]</tspan></text><text transform="matrix(1,0,0,1,0,0)" style="text-anchor: middle; font: normal normal 200 12px/normal Arial;" x="55.575500000000005" y="189.55200000000002" text-anchor="middle" font="10px &quot;Arial&quot;" stroke="#FFA500" fill="#FFA500" font-size="12px" font-weight="200" stroke-width="0" class="eRelation"><tspan dy="4.361538461538462"></tspan></text><rect transform="matrix(0.9874,0.158,-0.158,0.9874,46.7699,-82.5859)" x="536.5" y="327.5" width="25.317977802344327" height="10" rx="0" ry="0" fill="none" stroke="#FFA500" stroke-width="1" stroke-dasharray="3,1" class="conectionSelection"></rect></svg>