<svg xmlns="http://www.w3.org/2000/svg" xmlns:xlink="http://www.w3.org/1999/xlink" width="510" version="1.1" height="285" viewBox="95 95 520 295"><path transform="matrix(1,0,0,1,300,100)" fill="#f9f7ed" stroke="#cccccc" d="M0,6Q0,0,6,0L94,0Q100,0,100,6L100,25Q100,25,100,25L0,25Q0,25,0,25Z" stroke-width="3" stroke-dasharray="13,3" x="600" y="200" opacity="1"></path><path transform="matrix(1,0,0,1,300,125)" fill="#f9f7ed" stroke="#cccccc" d="M0,0Q0,0,0,0L100,0Q100,0,100,0L100,94Q100,100,94,100L6,100Q0,100,0,94Z" stroke-width="3" stroke-dasharray="13,3" opacity="1"></path><text transform="matrix(1,0,0,1,0,0)" style="text-anchor: middle; font: normal normal 200 12px/normal Arial;" x="350" y="175" text-anchor="middle" font="10px &quot;Arial&quot;" stroke="#000000" fill="#000000" font-size="12px" font-weight="200" stroke-width="0" opacity="1"><tspan dy="4.361538461538462">pay loan</tspan></text><text transform="matrix(1,0,0,1,0,0)" style="text-anchor: middle; font: normal normal 700 12px/normal Arial;" x="350" y="113" text-anchor="middle" font="10px &quot;Arial&quot;" stroke="#000000" fill="#000000" font-size="12px" font-weight="700" stroke-width="0" opacity="1"><tspan dy="4.361538461538462">client</tspan></text><text transform="matrix(1,0,0,1,0,0)" style="text-anchor: middle; font: italic normal normal 12px/normal Arial;" x="350" y="195" text-anchor="middle" font="10px &quot;Arial&quot;" stroke="none" fill="#9E9E9E" font-size="12px" font-weight="normal" font-style="italic" stroke-width="1" opacity="1"><tspan dy="4.361538461538462"></tspan></text><path transform="matrix(1,0,0,1,500,250)" fill="#f9f7ed" stroke="#cccccc" d="M0,6Q0,0,6,0L94,0Q100,0,100,6L100,25Q100,25,100,25L0,25Q0,25,0,25Z" stroke-width="3" stroke-dasharray="13,3" opacity="1" x="500" y="250"></path><path transform="matrix(1,0,0,1,500,275)" fill="#f9f7ed" stroke="#cccccc" d="M0,0Q0,0,0,0L100,0Q100,0,100,0L100,94Q100,100,94,100L6,100Q0,100,0,94Z" stroke-width="3" stroke-dasharray="13,3" opacity="1"></path><text transform="matrix(1,0,0,1,0,0)" style="text-anchor: middle; font: normal normal 200 12px/normal Arial;" x="550" y="325" text-anchor="middle" font="10px &quot;Arial&quot;" stroke="#000000" fill="#000000" font-size="12px" font-weight="200" stroke-width="0" opacity="1"><tspan dy="4.361538461538462">fine</tspan></text><text transform="matrix(1,0,0,1,0,0)" style="text-anchor: middle; font: normal normal 700 12px/normal Arial;" x="550" y="263" text-anchor="middle" font="10px &quot;Arial&quot;" stroke="#000000" fill="#000000" font-size="12px" font-weight="700" stroke-width="0" opacity="1"><tspan dy="4.361538461538462">bank</tspan></text><text transform="matrix(1,0,0,1,0,0)" style="text-anchor: middle; font: italic normal normal 12px/normal Arial;" x="550" y="345" text-anchor="middle" font="10px &quot;Arial&quot;" stroke="none" fill="#9E9E9E" font-size="12px" font-weight="normal" font-style="italic" stroke-width="1" opacity="1"><tspan dy="4.361538461538462"></tspan></text><path transform="matrix(1,0,0,1,100,250)" fill="#f9f7ed" stroke="#cccccc" d="M0,6Q0,0,6,0L94,0Q100,0,100,6L100,25Q100,25,100,25L0,25Q0,25,0,25Z" stroke-width="3" opacity="1" x="100" y="250"></path><path transform="matrix(1,0,0,1,100,275)" fill="#f9f7ed" stroke="#cccccc" d="M0,0Q0,0,0,0L100,0Q100,0,100,0L100,94Q100,100,94,100L6,100Q0,100,0,94Z" stroke-width="3" opacity="1"></path><text transform="matrix(1,0,0,1,0,0)" style="text-anchor: middle; font: normal normal 200 12px/normal Arial;" x="150" y="325" text-anchor="middle" font="10px &quot;Arial&quot;" stroke="#000000" fill="#000000" font-size="12px" font-weight="200" stroke-width="0" opacity="1"><tspan dy="4.361538461538462">give loan</tspan></text><text transform="matrix(1,0,0,1,0,0)" style="text-anchor: middle; font: normal normal 700 12px/normal Arial;" x="150" y="263" text-anchor="middle" font="10px &quot;Arial&quot;" stroke="#000000" fill="#000000" font-size="12px" font-weight="700" stroke-width="0" opacity="1"><tspan dy="4.361538461538462">bank</tspan></text><text transform="matrix(1,0,0,1,0,0)" style="text-anchor: middle; font: italic normal normal 12px/normal Arial;" x="150" y="345" text-anchor="middle" font="10px &quot;Arial&quot;" stroke="none" fill="#9E9E9E" font-size="12px" font-weight="normal" font-style="italic" stroke-width="1" opacity="1"><tspan dy="4.361538461538462"></tspan></text><text transform="matrix(1,0,0,1,0,0)" style="text-anchor: middle; font: normal normal 200 18px/normal Arial;" x="495" y="309" text-anchor="middle" font="10px &quot;Arial&quot;" stroke="#FFA500" fill="#FFA500" stroke-width="0" font-size="18px" font-weight="200" class="arrow eRelation"><tspan dy="6.542307692307693">◆</tspan></text><text transform="matrix(0,-1,1,0,178,796)" style="text-anchor: middle; font: normal normal 200 14px/normal Arial;" x="487" y="309" text-anchor="middle" font="10px &quot;Arial&quot;" stroke="#FFA500" fill="#FFA500" stroke-width="0" font-size="14px" font-weight="200" class="arrowHead eRelation"><tspan dy="5.088461538461539">▼</tspan></text><path transform="matrix(1,0,0,1,0,0)" fill="none" stroke="#FFA500" d="M201,309L487,309" arrow-start="none" arrow-end="none" stroke-width="2.2"></path><text transform="matrix(1,0,0,1,0,0)" style="text-anchor: middle; font: normal normal 200 12px/normal Arial;" x="344" y="301" text-anchor="middle" font="10px &quot;Arial&quot;" stroke="none" fill="#FFA500" font-size="12px" font-weight="200" stroke-width="0" class="eRelation"><tspan dy="4.361538461538462"></tspan></text><text transform="matrix(1,0,0,1,0,0)" style="text-anchor: middle; font: normal normal 200 12px/normal Arial;" x="344" y="317" text-anchor="middle" font="10px &quot;Arial&quot;" stroke="none" fill="#FFA500" font-size="12px" font-weight="200" stroke-width="0" class="eRelation"><tspan dy="4.361538461538462">P1M</tspan></text><circle transform="matrix(1,0,0,1,0,0)" cx="205" cy="321.75" r="4" fill="#29A81A" stroke="#29A81A" stroke-width="0" class="arrow eRelation"></circle><text transform="matrix(1,0,0,1,0,0)" style="text-anchor: middle; font: normal normal normal 22px/normal Arial;" x="495" y="321.75" text-anchor="middle" font="10px &quot;Arial&quot;" stroke="#29A81A" fill="#29A81A" stroke-width="0" font-size="22px" class="arrowExtension eRelation"><tspan dy="7.996153846153847">+</tspan></text><text transform="matrix(0,-1,1,0,163.25,806.75)" style="text-anchor: middle; font: normal normal 200 14px/normal Arial;" x="485" y="321.75" text-anchor="middle" font="10px &quot;Arial&quot;" stroke="#29A81A" fill="#29A81A" stroke-width="0" font-size="14px" font-weight="200" class="arrowHead eRelation"><tspan dy="5.088461538461539">▼</tspan></text><path transform="matrix(1,0,0,1,0,0)" fill="none" stroke="#29A81A" d="M201,321.75L487,321.75" arrow-start="none" arrow-end="none" stroke-width="2.2"></path><text transform="matrix(1,0,0,1,0,0)" style="text-anchor: middle; font: normal normal 200 12px/normal Arial;" x="344" y="313.75" text-anchor="middle" font="10px &quot;Arial&quot;" stroke="none" fill="#29A81A" font-size="12px" font-weight="200" stroke-width="0" class="eRelation"><tspan dy="4.361538461538462"></tspan></text><text transform="matrix(1,0,0,1,0,0)" style="text-anchor: middle; font: normal normal 200 12px/normal Arial;" x="344" y="329.75" text-anchor="middle" font="10px &quot;Arial&quot;" stroke="none" fill="#29A81A" font-size="12px" font-weight="200" stroke-width="0" class="eRelation"><tspan dy="4.361538461538462"></tspan></text><circle transform="matrix(1,0,0,1,0,0)" cx="203.8565724771115" cy="248.93846868685569" r="4" fill="#29A81A" stroke="#29A81A" stroke-width="0" class="arrow eRelation"></circle><text transform="matrix(1,0,0,1,0,0)" style="text-anchor: middle; font: normal normal normal 22px/normal Arial;" x="295.1434275228885" y="223.81153131314434" text-anchor="middle" font="10px &quot;Arial&quot;" stroke="#29A81A" fill="#29A81A" stroke-width="0" font-size="22px" class="arrowExtension eRelation"><tspan dy="7.996153846153847">+</tspan></text><text transform="matrix(-0.2588,-0.9659,0.9659,-0.2588,140.6466,560.8526)" style="text-anchor: middle; font: normal normal 200 14px/normal Arial;" x="285.5019963301097" y="226.46535959600516" text-anchor="middle" font="10px &quot;Arial&quot;" stroke="#29A81A" fill="#29A81A" stroke-width="0" font-size="14px" font-weight="200" class="arrowHead eRelation"><tspan dy="5.088461538461539">▼</tspan></text><path transform="matrix(1,0,0,1,0,0)" fill="none" stroke="#29A81A" d="M200,250L287.43,225.935" arrow-start="none" arrow-end="none" stroke-width="2.2"></path><text transform="matrix(1,0,0,1,0,0)" style="text-anchor: middle; font: normal normal 200 12px/normal Arial;" x="243.715" y="229.9675" text-anchor="middle" font="10px &quot;Arial&quot;" stroke="none" fill="#29A81A" font-size="12px" font-weight="200" stroke-width="0" class="eRelation"><tspan dy="4.361538461538462"></tspan></text><text transform="matrix(1,0,0,1,0,0)" style="text-anchor: middle; font: normal normal 200 12px/normal Arial;" x="243.715" y="245.9675" text-anchor="middle" font="10px &quot;Arial&quot;" stroke="none" fill="#29A81A" font-size="12px" font-weight="200" stroke-width="0" class="eRelation"><tspan dy="4.361538461538462"></tspan></text><circle transform="matrix(1,0,0,1,0,0)" cx="404.8565724771115" cy="223.81153131314431" r="4" fill="red" stroke="red" stroke-width="0" class="arrow eRelation"></circle><text transform="matrix(1,0,0,1,0,0)" style="text-anchor: middle; font: normal normal 200 14px/normal Arial;" x="496.1434275228885" y="248.93846868685566" text-anchor="middle" font="10px &quot;Arial&quot;" stroke="red" fill="red" stroke-width="0" font-size="14px" font-weight="200" class="arrowExtension eRelation"><tspan dy="5.088461538461539">%</tspan></text><text transform="matrix(0.2756,-0.9613,0.9613,0.2756,115.6599,646.0551)" style="text-anchor: middle; font: normal normal 200 14px/normal Arial;" x="486.5019963301097" y="246.28464040399484" text-anchor="middle" font="10px &quot;Arial&quot;" stroke="red" fill="red" stroke-width="0" font-size="14px" font-weight="200" class="arrowHead eRelation"><tspan dy="5.088461538461539">▼</tspan></text><path transform="matrix(1,0,0,1,0,0)" fill="none" stroke="red" d="M401,222.75L488.43,246.815" arrow-start="none" arrow-end="none" stroke-width="2.2"></path><text transform="matrix(1,0,0,1,0,0)" style="text-anchor: middle; font: normal normal 200 12px/normal Arial;" x="444.71500000000003" y="226.7825" text-anchor="middle" font="10px &quot;Arial&quot;" stroke="none" fill="red" font-size="12px" font-weight="200" stroke-width="0" class="eRelation"><tspan dy="4.361538461538462"></tspan></text><text transform="matrix(1,0,0,1,0,0)" style="text-anchor: middle; font: normal normal 200 12px/normal Arial;" x="444.71500000000003" y="242.7825" text-anchor="middle" font="10px &quot;Arial&quot;" stroke="none" fill="red" font-size="12px" font-weight="200" stroke-width="0" class="eRelation"><tspan dy="4.361538461538462"></tspan></text><circle transform="matrix(1,0,0,1,0,0)" cx="518.5" cy="250" r="4" fill="red" stroke="red" stroke-width="0" class="arrow eRelation"></circle><text transform="matrix(1,0,0,1,0,0)" style="text-anchor: middle; font: normal normal 200 14px/normal Arial;" x="509" y="250" text-anchor="middle" font="10px &quot;Arial&quot;" stroke="red" fill="red" stroke-width="0" font-size="14px" font-weight="200" class="arrowExtension eRelation"><tspan dy="5.088461538461539">%</tspan></text><text transform="matrix(0.7071,-0.7071,0.7071,0.7071,-25.9367,428.898)" style="text-anchor: middle; font: normal normal 200 14px/normal Arial;" x="504.75735931288074" y="245.7573593128807" text-anchor="middle" font="10px &quot;Arial&quot;" stroke="red" fill="red" stroke-width="0" font-size="14px" font-weight="200" class="arrowHead eRelation"><tspan dy="5.088461538461539">▼</tspan></text><path transform="matrix(1,0,0,1,0,0)" fill="none" stroke="red" d="M518.5,250C498.5,230,489,230,509,250" arrow-start="none" arrow-end="none" stroke-width="2.2"></path><text transform="matrix(1,0,0,1,0,0)" style="text-anchor: middle; font: normal normal 200 12px/normal Arial;" x="508.21664982841054" y="219.5" text-anchor="middle" font="10px &quot;Arial&quot;" stroke="none" fill="red" font-size="12px" font-weight="200" stroke-width="0" class="eRelation"><tspan dy="4.361538461538462"></tspan></text><text transform="matrix(1,0,0,1,0,0)" style="text-anchor: middle; font: normal normal 200 12px/normal Arial;" x="508.21664982841054" y="235.5" text-anchor="middle" font="10px &quot;Arial&quot;" stroke="none" fill="red" font-size="12px" font-weight="200" stroke-width="0" class="eRelation"><tspan dy="4.361538461538462"></tspan></text></svg>